<svg xmlns="http://www.w3.org/2000/svg" width="14" height="14" viewBox="0 0 14 14"><defs><style>.a{fill:#858585;}</style></defs><path class="a" d="M15,8a7,7,0,1,0,7,7A7,7,0,0,0,15,8Zm0,12.645A5.645,5.645,0,1,1,20.645,15,5.644,5.644,0,0,1,15,20.645Zm2.873-7.4L16.118,15l1.756,1.756a.339.339,0,0,1,0,.48l-.638.638a.339.339,0,0,1-.48,0L15,16.118l-1.756,1.756a.339.339,0,0,1-.48,0l-.638-.638a.339.339,0,0,1,0-.48L13.882,15l-1.756-1.756a.339.339,0,0,1,0-.48l.638-.638a.339.339,0,0,1,.48,0L15,13.882l1.756-1.756a.339.339,0,0,1,.48,0l.638.638a.339.339,0,0,1,0,.48Z" transform="translate(-8 -8)"/></svg>