<svg xmlns="http://www.w3.org/2000/svg" xmlns:xlink="http://www.w3.org/1999/xlink" width="16" height="16" viewBox="0 0 16 16"><defs><style>.a{fill:#fff;stroke:#707070;}.b{clip-path:url(#a);}</style><clipPath id="a"><rect class="a" width="16" height="16" transform="translate(29 601)"/></clipPath></defs><g class="b" transform="translate(-29 -601)"><path d="M11.5,13H1.5a.5.5,0,0,0-.5.5v2a.5.5,0,0,0,.5.5h10a.5.5,0,0,0,.5-.5v-2A.5.5,0,0,0,11.5,13Zm1.781-6.534a2,2,0,0,0-2.816.256L9.812,7.5,8.887,3.49A4.5,4.5,0,1,0,.116,5.512L1.612,12h9.656l2.266-2.719A2,2,0,0,0,13.281,6.465Z" transform="translate(30.001 601.001)"/></g></svg>