<svg xmlns="http://www.w3.org/2000/svg" width="32" height="32" viewBox="0 0 32 32"><defs><style>.a{fill:#f8c852;}</style></defs><path class="a" d="M16,8A16,16,0,1,0,32,24,16,16,0,0,0,16,8ZM8.774,22.968a2.043,2.043,0,0,1,.677-1.51l-2-.6a1.031,1.031,0,0,1,.594-1.974l5.161,1.548a1.032,1.032,0,0,1-.3,2.019c-.032,0-.071-.013-.11-.013a2.086,2.086,0,0,1,.11.529,2.068,2.068,0,0,1-4.135,0Zm10.839,9.948a4.854,4.854,0,0,0-7.232,0,1.033,1.033,0,0,1-1.587-1.323,6.763,6.763,0,0,1,10.4,0A1.031,1.031,0,0,1,19.613,32.916Zm4.942-12.058-2,.6a2.059,2.059,0,1,1-3.452,1.51,1.8,1.8,0,0,1,.11-.529.636.636,0,0,1-.11.013,1.032,1.032,0,0,1-.3-2.019l5.161-1.548a1.03,1.03,0,1,1,.587,1.974Z" transform="translate(0 -8)"/></svg>