<svg xmlns="http://www.w3.org/2000/svg" width="40" height="40" viewBox="0 0 40 40"><defs><style>.a{fill:#f8c852;}</style></defs><path class="a" d="M20,8A20,20,0,1,0,40,28,20,20,0,0,0,20,8ZM10.968,26.71a2.554,2.554,0,0,1,.847-1.887l-2.5-.75a1.288,1.288,0,0,1,.742-2.468l6.452,1.935a1.29,1.29,0,0,1-.371,2.524c-.04,0-.089-.016-.137-.016a2.608,2.608,0,0,1,.137.661,2.585,2.585,0,0,1-5.169,0ZM24.516,39.145a6.067,6.067,0,0,0-9.04,0,1.291,1.291,0,0,1-1.984-1.653,8.454,8.454,0,0,1,13,0A1.288,1.288,0,0,1,24.516,39.145Zm6.177-15.073-2.5.75a2.573,2.573,0,1,1-4.315,1.887,2.246,2.246,0,0,1,.137-.661.8.8,0,0,1-.137.016,1.29,1.29,0,0,1-.371-2.524L29.96,21.6a1.287,1.287,0,1,1,.734,2.468Z" transform="translate(0 -8)"/></svg>