<svg xmlns="http://www.w3.org/2000/svg" xmlns:xlink="http://www.w3.org/1999/xlink" width="16" height="16" viewBox="0 0 16 16">
  <defs>
    <clipPath id="clip-path">
      <rect id="Rectangle_13" data-name="Rectangle 13" width="16" height="16" transform="translate(26 353)" stroke="#707070" stroke-width="1"/>
    </clipPath>
  </defs>
  <g id="application" transform="translate(-26 -353)" clip-path="url(#clip-path)">
    <path id="Path_20026" data-name="Path 20026" d="M245.222,71.756a6.189,6.189,0,0,1-1.461,1.709l-.008.006a5.884,5.884,0,0,1-.748.463c.038-.363.065-.727.077-1.1.01-.285.013-.569,0-.85a15.156,15.156,0,0,0-.308-2.774q-.106-.508-.245-1c-.011-.041-.022-.081-.034-.122s-.025-.088-.039-.132a15.115,15.115,0,0,0-2.082-4.322c.008.3.007.6,0,.9a15.256,15.256,0,0,1-.324,2.644c-.006.025-.011.051-.016.076l-.017.076h0a15.14,15.14,0,0,1-2.691,5.824,6.168,6.168,0,0,1-1.373-4.884c0-.016,0-.032.007-.047a6.191,6.191,0,0,0-1.246,1.082c-.009.009-.018.02-.026.03a5.658,5.658,0,0,0-.464.606c-.019.027-.037.053-.054.08-.075.115-.146.232-.213.352a6.1,6.1,0,0,0-.462,1.045,0,0,0,0,1,0,0,6.049,6.049,0,0,0-.3,1.153c0,.011,0,.024-.005.035a6.014,6.014,0,0,0-.067.72,5.24,5.24,0,0,0,.007.533,6,6,0,0,0,.718,2.57c.009.016.02.035.028.052a6.081,6.081,0,0,0,5.117,3.143,6.175,6.175,0,0,0,.83-.027h0A6.162,6.162,0,0,0,244.2,77.2l.027-.037,0,0,.026-.036a6.134,6.134,0,0,0,1.018-2.155s0,0,0-.006a5.318,5.318,0,0,0-.048-3.183" transform="translate(-205.114 289.365)"/>
  </g>
</svg>
