<svg xmlns="http://www.w3.org/2000/svg" xmlns:xlink="http://www.w3.org/1999/xlink" width="16" height="16" viewBox="0 0 16 16"><defs><style>.a{fill:#fff;stroke:#707070;}.b{clip-path:url(#a);}</style><clipPath id="a"><rect class="a" width="16" height="16" transform="translate(26 353)"/></clipPath></defs><g class="b" transform="translate(-26 -353)"><path d="M1,14a1,1,0,0,0,1,1H14a1,1,0,0,0,1-1V5H1ZM6,7.375A.376.376,0,0,1,6.375,7h3.25A.376.376,0,0,1,10,7.375v.25A.376.376,0,0,1,9.625,8H6.375A.376.376,0,0,1,6,7.625ZM15,1H1A1,1,0,0,0,0,2V3.5A.5.5,0,0,0,.5,4h15a.5.5,0,0,0,.5-.5V2A1,1,0,0,0,15,1Z" transform="translate(26 353)"/></g></svg>