<svg xmlns="http://www.w3.org/2000/svg" xmlns:xlink="http://www.w3.org/1999/xlink" width="16" height="16" viewBox="0 0 16 16"><defs><style>.a,.c{fill:#f88989;}.a{stroke:#707070;}.b{clip-path:url(#a);}</style><clipPath id="a"><rect class="a" width="16" height="16" transform="translate(26 353)"/></clipPath></defs><g class="b" transform="translate(-26 -353)"><path class="c" d="M8.258,16.258a8,8,0,1,1,8-8A8,8,0,0,1,8.258,16.258ZM12,6.839H8.258V4.552A.387.387,0,0,0,7.6,4.277L3.91,7.984a.384.384,0,0,0,0,.545L7.6,12.235a.387.387,0,0,0,.661-.274V9.677H12a.388.388,0,0,0,.387-.387V7.226A.388.388,0,0,0,12,6.839Z" transform="translate(25.742 352.742)"/></g></svg>