<svg xmlns="http://www.w3.org/2000/svg" width="24" height="14.4" viewBox="0 0 24 14.4"><path d="M21.6,64H7.692a2.4,2.4,0,0,0-1.7.7L.347,70.351a1.2,1.2,0,0,0,0,1.7L6,77.7a2.4,2.4,0,0,0,1.7.7H21.6a2.4,2.4,0,0,0,2.4-2.4V66.4A2.4,2.4,0,0,0,21.6,64Zm-3.176,9.527a.6.6,0,0,1,0,.849l-.848.848a.6.6,0,0,1-.849,0L14.4,72.9l-2.327,2.327a.6.6,0,0,1-.849,0l-.848-.848a.6.6,0,0,1,0-.849L12.7,71.2l-2.327-2.327a.6.6,0,0,1,0-.849l.848-.848a.6.6,0,0,1,.849,0L14.4,69.5l2.327-2.327a.6.6,0,0,1,.849,0l.848.848a.6.6,0,0,1,0,.849L16.092,71.2Z" transform="translate(0.005 -64)"/></svg>