<svg xmlns="http://www.w3.org/2000/svg" width="72" height="57.6" viewBox="0 0 72 57.6"><path d="M10.8,52.2v3.6a1.8,1.8,0,0,0,1.8,1.8H37.8a1.8,1.8,0,0,0,1.8-1.8V17.237a9.054,9.054,0,0,0,1.461-.8l15.981,5.358a1.8,1.8,0,0,0,2.279-1.134l1.144-3.413a1.8,1.8,0,0,0-1.134-2.279L44.886,10.125A8.894,8.894,0,0,0,45,9,8.973,8.973,0,0,0,28.225,4.538L14.958.09a1.8,1.8,0,0,0-2.279,1.134L11.535,4.637a1.8,1.8,0,0,0,1.134,2.279L27.519,11.9a8.99,8.99,0,0,0,4.88,5.34V50.4H12.6A1.8,1.8,0,0,0,10.8,52.2ZM0,34.2c0,4.97,6.447,9,14.4,9s14.4-4.03,14.4-9h0c0-1.763.234-.816-9.568-20.42a5.4,5.4,0,0,0-9.66,0C-.148,33.214,0,32.376,0,34.2Zm6.3-1.8,8.1-16.2,8.1,16.2ZM43.2,48.6h0c0,4.97,6.447,9,14.4,9s14.4-4.03,14.4-9h0c0-1.763.234-.816-9.568-20.42a5.4,5.4,0,0,0-9.66,0C43.051,47.614,43.2,46.776,43.2,48.6Zm6.3-1.8,8.1-16.2,8.1,16.2Z" transform="translate(0 0.004)"/></svg>