<svg xmlns="http://www.w3.org/2000/svg" width="95" height="95" viewBox="0 0 95 95"><defs><style>.a{fill:#a20a0a;}</style></defs><path class="a" d="M40.662,8.441a47.218,47.218,0,0,0-23.405,10.3L32.082,33.57A42.659,42.659,0,0,0,40.662,8.441ZM47.5,48.988,77.743,18.745A47.34,47.34,0,0,0,49.875,8c-.23,12.239-4.118,23.424-11.243,32.12ZM10.745,25.257A47.218,47.218,0,0,0,.441,48.662,42.613,42.613,0,0,0,25.57,40.082ZM62.88,64.368C71.556,57.262,82.742,53.374,95,53.125A47.34,47.34,0,0,0,84.255,25.257L54.012,55.5l8.868,8.868ZM47.5,62.012,17.257,92.255A47.465,47.465,0,0,0,45.125,103c.249-12.258,4.137-23.444,11.243-32.12ZM84.255,85.743a47.218,47.218,0,0,0,10.3-23.405A42.828,42.828,0,0,0,69.43,70.918ZM32.12,46.632C23.424,53.757,12.239,57.664,0,57.875A47.34,47.34,0,0,0,10.745,85.743L40.988,55.5Zm22.218,55.927a47.218,47.218,0,0,0,23.405-10.3L62.918,77.43a42.874,42.874,0,0,0-8.581,25.129Z" transform="translate(0 -8)"/></svg>