<svg xmlns="http://www.w3.org/2000/svg" xmlns:xlink="http://www.w3.org/1999/xlink" width="164" height="164" viewBox="0 0 164 164"><defs><style>.a,.c{fill:#d2d2d2;}.a{stroke:#707070;}.b{clip-path:url(#a);}</style><clipPath id="a"><rect class="a" width="164" height="164" transform="translate(26 353)"/></clipPath></defs><g class="b" transform="translate(-26 -353)"><path class="c" d="M139.925,154.046h-6.419V7.7A7.7,7.7,0,0,0,125.8,0H17.972a7.7,7.7,0,0,0-7.7,7.7V154.046H3.851A3.851,3.851,0,0,0,0,157.9v6.419H143.776V157.9A3.851,3.851,0,0,0,139.925,154.046ZM41.079,24.391a3.851,3.851,0,0,1,3.851-3.851H57.767a3.851,3.851,0,0,1,3.851,3.851V37.228a3.851,3.851,0,0,1-3.851,3.851H44.93a3.851,3.851,0,0,1-3.851-3.851Zm0,30.809a3.851,3.851,0,0,1,3.851-3.851H57.767A3.851,3.851,0,0,1,61.618,55.2V68.037a3.851,3.851,0,0,1-3.851,3.851H44.93a3.851,3.851,0,0,1-3.851-3.851Zm16.688,47.5H44.93a3.851,3.851,0,0,1-3.851-3.851V86.009a3.851,3.851,0,0,1,3.851-3.851H57.767a3.851,3.851,0,0,1,3.851,3.851V98.846A3.851,3.851,0,0,1,57.767,102.7Zm24.391,51.349H61.618V127.088a3.851,3.851,0,0,1,3.851-3.851H78.307a3.851,3.851,0,0,1,3.851,3.851Zm20.539-55.2a3.851,3.851,0,0,1-3.851,3.851H86.009a3.851,3.851,0,0,1-3.851-3.851V86.009a3.851,3.851,0,0,1,3.851-3.851H98.846a3.851,3.851,0,0,1,3.851,3.851Zm0-30.809a3.851,3.851,0,0,1-3.851,3.851H86.009a3.851,3.851,0,0,1-3.851-3.851V55.2a3.851,3.851,0,0,1,3.851-3.851H98.846A3.851,3.851,0,0,1,102.7,55.2Zm0-30.809a3.851,3.851,0,0,1-3.851,3.851H86.009a3.851,3.851,0,0,1-3.851-3.851V24.391a3.851,3.851,0,0,1,3.851-3.851H98.846a3.851,3.851,0,0,1,3.851,3.851Z" transform="translate(36.27 353)"/></g></svg>