<svg xmlns="http://www.w3.org/2000/svg" width="12.25" height="14" viewBox="0 0 12.25 14"><defs><style>.a{fill:#c8c8c8;}</style></defs><path class="a" d="M0,12.688A1.313,1.313,0,0,0,1.313,14h9.625a1.313,1.313,0,0,0,1.313-1.312V5.25H0ZM8.75,7.328A.329.329,0,0,1,9.078,7h1.094a.329.329,0,0,1,.328.328V8.422a.329.329,0,0,1-.328.328H9.078a.329.329,0,0,1-.328-.328Zm0,3.5a.329.329,0,0,1,.328-.328h1.094a.329.329,0,0,1,.328.328v1.094a.329.329,0,0,1-.328.328H9.078a.329.329,0,0,1-.328-.328Zm-3.5-3.5A.329.329,0,0,1,5.578,7H6.672A.329.329,0,0,1,7,7.328V8.422a.329.329,0,0,1-.328.328H5.578a.329.329,0,0,1-.328-.328Zm0,3.5a.329.329,0,0,1,.328-.328H6.672A.329.329,0,0,1,7,10.828v1.094a.329.329,0,0,1-.328.328H5.578a.329.329,0,0,1-.328-.328Zm-3.5-3.5A.329.329,0,0,1,2.078,7H3.172a.329.329,0,0,1,.328.328V8.422a.329.329,0,0,1-.328.328H2.078a.329.329,0,0,1-.328-.328Zm0,3.5a.329.329,0,0,1,.328-.328H3.172a.329.329,0,0,1,.328.328v1.094a.329.329,0,0,1-.328.328H2.078a.329.329,0,0,1-.328-.328ZM10.938,1.75H9.625V.438A.439.439,0,0,0,9.188,0H8.313a.439.439,0,0,0-.437.438V1.75h-3.5V.438A.439.439,0,0,0,3.938,0H3.063a.439.439,0,0,0-.437.438V1.75H1.313A1.313,1.313,0,0,0,0,3.063V4.375H12.25V3.063A1.313,1.313,0,0,0,10.938,1.75Z"/></svg>