<svg xmlns="http://www.w3.org/2000/svg" xmlns:xlink="http://www.w3.org/1999/xlink" width="24" height="24" viewBox="0 0 24 24"><defs><style>.a{fill:#fff;}.b{clip-path:url(#a);}.c{fill:none;}.d{fill:#191919;}</style><clipPath id="a"><rect class="a" width="24" height="24" transform="translate(1204 18)"/></clipPath></defs><g class="b" transform="translate(-1204 -18)"><g transform="translate(1204.005 18.002)"><path class="c" d="M0,0H24V24H0Z"/><path class="d" d="M19.01,55.106a.685.685,0,0,1-.7-.666V49.366a.685.685,0,0,1,.7-.665h1.326a.684.684,0,0,1,.7.665v1.251h2.982L25.6,46.478l-6.547-2.642a1.381,1.381,0,0,1-.445-.291,1.289,1.289,0,0,1-.284-.417,1.276,1.276,0,0,1-.074-.239,1.2,1.2,0,0,1-.026-.253,1.23,1.23,0,0,1,.108-.5l4-6.455h0a1.286,1.286,0,0,1,.307-.421,1.366,1.366,0,0,1,.206-.156,1.409,1.409,0,0,1,.484-.185,1.385,1.385,0,0,1,.267-.024,1.413,1.413,0,0,1,.533.1c.146.061,14.564,6.06,15.6,6.478h.009a1.53,1.53,0,0,1,.356.2,1.487,1.487,0,0,1,.279.281,1.372,1.372,0,0,1,.188.332,1.182,1.182,0,0,1,.082.361,1.054,1.054,0,0,1-.139.6,1.216,1.216,0,0,1-.216.271,1.578,1.578,0,0,1-.325.233c-.655.36-2.578,1.516-3.667,2.172-1.59.959-3.112,1.885-3.6,2.194a3.808,3.808,0,0,1-.707.355,2.063,2.063,0,0,1-.59.128,1.878,1.878,0,0,1-.526-.045,3.333,3.333,0,0,1-.514-.168l-2.259-.9-1.855,4.844h-.007a1.608,1.608,0,0,1-1.416.86H21.038v1.258a.684.684,0,0,1-.7.666Zm20.549-4.54a.991.991,0,0,1-.367-.091l-4.5-2.127,5.569-3.32,1.422.62a1.143,1.143,0,0,1,.35.239.68.68,0,0,1,.171.3.794.794,0,0,1,.005.353,1.493,1.493,0,0,1-.146.4l-1.6,3.117a.909.909,0,0,1-.23.286.98.98,0,0,1-.316.174.992.992,0,0,1-.311.05Z" transform="translate(-18.229 -32.889)"/></g></g></svg>