<svg xmlns="http://www.w3.org/2000/svg" xmlns:xlink="http://www.w3.org/1999/xlink" width="72" height="72" viewBox="0 0 72 72"><defs><style>.a{stroke:#707070;}.b{clip-path:url(#a);}</style><clipPath id="a"><rect class="a" width="72" height="72" transform="translate(26 353)"/></clipPath></defs><g class="b" transform="translate(-26 -353)"><path d="M0,57v6c0,4.964,12.094,9,27,9s27-4.036,27-9V57c-5.808,4.092-16.425,6-27,6S5.808,61.087,0,57ZM45,18c14.906,0,27-4.036,27-9S59.906,0,45,0,18,4.036,18,9,30.094,18,45,18ZM0,42.244V49.5c0,4.964,12.094,9,27,9s27-4.036,27-9V42.244C48.192,47.025,37.561,49.5,27,49.5S5.808,47.025,0,42.244Zm58.5,1.547C66.558,42.23,72,39.333,72,36V30c-3.263,2.306-8.058,3.881-13.5,4.852ZM27,22.5c-14.906,0-27,5.034-27,11.25S12.094,45,27,45s27-5.034,27-11.25S41.906,22.5,27,22.5Zm30.839,7.917C66.277,28.9,72,25.917,72,22.5v-6c-4.992,3.53-13.57,5.428-22.6,5.878C53.55,24.384,56.6,27.084,57.839,30.417Z" transform="translate(26 353)"/></g></svg>