<svg xmlns="http://www.w3.org/2000/svg" width="95" height="95.001" viewBox="0 0 95 95.001"><defs><style>.a{fill:#a20a0a;}</style></defs><path class="a" d="M94.723,47.47A23.736,23.736,0,0,1,71.257,23.746,23.735,23.735,0,0,1,47.533.284,24.486,24.486,0,0,0,32.742,2.663L19.915,9.2A24.533,24.533,0,0,0,9.192,19.924L2.68,32.7A24.612,24.612,0,0,0,.3,47.724L2.542,61.876A24.589,24.589,0,0,0,9.437,75.413L19.6,85.574A24.5,24.5,0,0,0,33.091,92.45L47.324,94.7a24.476,24.476,0,0,0,14.942-2.368L75.093,85.8A24.543,24.543,0,0,0,85.815,75.078L92.328,62.3a24.6,24.6,0,0,0,2.4-14.827ZM32.655,68.285a5.937,5.937,0,1,1,5.937-5.937A5.938,5.938,0,0,1,32.655,68.285ZM38.592,38.6A5.937,5.937,0,1,1,44.53,32.66,5.938,5.938,0,0,1,38.592,38.6Zm29.687,23.75a5.937,5.937,0,1,1,5.937-5.937A5.938,5.938,0,0,1,68.279,62.347Z" transform="translate(0.002 -0.005)"/></svg>