<svg xmlns="http://www.w3.org/2000/svg" xmlns:xlink="http://www.w3.org/1999/xlink" width="16" height="16" viewBox="0 0 16 16"><defs><style>.a{fill:none;}.b{clip-path:url(#a);}.c{fill:#a20a0a;}</style><clipPath id="a"><rect class="a" width="16" height="16" transform="translate(26 117)"/></clipPath></defs><g class="b" transform="translate(-26 -117)"><path class="c" d="M11.361,5.5l-.336.271a4.635,4.635,0,0,0-2.975-1.2A4.707,4.707,0,0,0,3.429,9.3a4.426,4.426,0,0,0,.05.693A3.311,3.311,0,0,1,6.786,6.511a3.267,3.267,0,0,1,2.236.882l-.9.729a1.01,1.01,0,1,0,.893.893L11.7,5.843a.241.241,0,0,0-.339-.343ZM8.368,9.482a.515.515,0,0,1-.721,0,.51.51,0,1,1,.721,0ZM8,1.143a8,8,0,1,0,8,8A8.01,8.01,0,0,0,8,1.143ZM8,14.857a5.714,5.714,0,1,1,5.714-5.714A5.722,5.722,0,0,1,8,14.857Z" transform="translate(26 115.857)"/></g></svg>