<svg xmlns="http://www.w3.org/2000/svg" xmlns:xlink="http://www.w3.org/1999/xlink" width="16" height="16" viewBox="0 0 16 16"><defs><style>.a{fill:#fff;stroke:#707070;}.b{clip-path:url(#a);}</style><clipPath id="a"><rect class="a" width="16" height="16" transform="translate(26 353)"/></clipPath></defs><g class="b" transform="translate(-26 -353)"><path d="M12.5,0H1.5A1.5,1.5,0,0,0,0,1.5v13A1.5,1.5,0,0,0,1.5,16h11A1.5,1.5,0,0,0,14,14.5V1.5A1.5,1.5,0,0,0,12.5,0ZM7,15a1,1,0,1,1,1-1A1,1,0,0,1,7,15Zm5.5-3.375a.376.376,0,0,1-.375.375H1.875a.376.376,0,0,1-.375-.375V1.875A.376.376,0,0,1,1.875,1.5h10.25a.376.376,0,0,1,.375.375Z" transform="translate(27 353)"/></g></svg>