<svg xmlns="http://www.w3.org/2000/svg" width="72" height="72" viewBox="0 0 72 72"><defs><style>.a{fill:none;}</style></defs><g transform="translate(-1248 -117)"><path d="M29.45,32.822,14.263,28.378A4.148,4.148,0,0,1,15.43,20.25h9.323a8.584,8.584,0,0,1,4.809,1.477,2.192,2.192,0,0,0,2.742-.281L37.2,16.664a2.279,2.279,0,0,0-.253-3.445A19.885,19.885,0,0,0,24.781,9V2.25A2.257,2.257,0,0,0,22.531,0h-4.5a2.257,2.257,0,0,0-2.25,2.25V9H15.43A15.408,15.408,0,0,0,.1,25.819C.692,32.3,5.642,37.575,11.886,39.4L26.3,43.622a4.148,4.148,0,0,1-1.167,8.128H15.809A8.584,8.584,0,0,1,11,50.273a2.192,2.192,0,0,0-2.742.281L3.364,55.336a2.279,2.279,0,0,0,.253,3.445A19.885,19.885,0,0,0,15.781,63v6.75A2.257,2.257,0,0,0,18.031,72h4.5a2.257,2.257,0,0,0,2.25-2.25V62.972c6.553-.127,12.7-4.022,14.864-10.223a15.442,15.442,0,0,0-10.2-19.927Z" transform="translate(1263.963 117)"/><rect class="a" width="72" height="72" transform="translate(1248 117)"/></g></svg>