<svg xmlns="http://www.w3.org/2000/svg" width="20" height="20" viewBox="0 0 20 20"><defs><style>.a{fill:#858585;}</style></defs><path class="a" d="M20,18.125A1.875,1.875,0,0,1,18.125,20H1.875A1.875,1.875,0,0,1,0,18.125V7.841A1.875,1.875,0,0,1,.718,6.365C1.691,5.6,2.5,4.984,7.132,1.618,7.79,1.139,9.094-.014,10,0c.906-.014,2.211,1.14,2.868,1.618C17.5,4.983,18.309,5.6,19.282,6.365A1.875,1.875,0,0,1,20,7.841Zm-2.565-7.68a.312.312,0,0,0-.443-.074c-.892.659-2.166,1.59-4.124,3.011C12.21,13.861,10.906,15.013,10,15c-.907.013-2.209-1.138-2.868-1.618C5.175,11.961,3.9,11.03,3.008,10.37a.312.312,0,0,0-.443.074l-.354.515a.312.312,0,0,0,.072.428c.894.66,2.166,1.589,4.113,3,.792.577,2.208,1.868,3.6,1.858,1.4.009,2.811-1.28,3.6-1.858,1.947-1.413,3.219-2.343,4.113-3a.312.312,0,0,0,.072-.428Z" transform="translate(0 0)"/></svg>