<svg xmlns="http://www.w3.org/2000/svg" width="168" height="149.333" viewBox="0 0 168 149.333"><defs><style>.a{fill:#ff5151;}</style></defs><path class="a" d="M166.109,128.337a14.008,14.008,0,0,1-12.127,21H14.016a14.008,14.008,0,0,1-12.127-21L71.873,7A14.008,14.008,0,0,1,96.126,7l69.983,121.342ZM84,103.25a13.417,13.417,0,1,0,13.417,13.417A13.417,13.417,0,0,0,84,103.25ZM71.262,55.024l2.164,39.667A3.5,3.5,0,0,0,76.92,98H91.079a3.5,3.5,0,0,0,3.495-3.309l2.164-39.667a3.5,3.5,0,0,0-3.495-3.691H74.756a3.5,3.5,0,0,0-3.494,3.691Z" transform="translate(0)"/></svg>