<svg xmlns="http://www.w3.org/2000/svg" width="24.138" height="16.092" viewBox="0 0 24.138 16.092"><defs><style>.a{fill:#fff;}</style></defs><path class="a" d="M24,73.558l-3.035,5.2a2.682,2.682,0,0,1-2.317,1.331H1.887a1.006,1.006,0,0,1-.869-1.513l3.035-5.2A2.682,2.682,0,0,1,6.37,72.046H23.13A1.006,1.006,0,0,1,24,73.558ZM6.37,70.7H20.115V68.693A2.011,2.011,0,0,0,18.1,66.682H11.4L8.716,64h-6.7A2.011,2.011,0,0,0,0,66.011V77.663L2.895,72.7A4.037,4.037,0,0,1,6.37,70.7Z" transform="translate(0 -64)"/></svg>