<svg xmlns="http://www.w3.org/2000/svg" width="14" height="11.2" viewBox="0 0 14 11.2"><defs><style>.a{fill:#a20a0a;}</style></defs><path class="a" d="M9.483,3.63,11.7,1.183A.693.693,0,0,0,11.207,0H.7a.693.693,0,0,0-.49,1.183L4.2,5.6V9.011a.875.875,0,0,0,.35.7L6.3,11.023a.871.871,0,0,0,1.3-.3,4.19,4.19,0,0,1,1.887-7.1ZM10.5,4.2A3.5,3.5,0,1,0,14,7.7,3.5,3.5,0,0,0,10.5,4.2Zm.35,5.247V9.8a.175.175,0,0,1-.175.175h-.35a.175.175,0,0,1-.175-.175V9.444A1.253,1.253,0,0,1,9.465,9.2a.175.175,0,0,1-.012-.266l.257-.245a.18.18,0,0,1,.222-.016.527.527,0,0,0,.28.081h.615a.275.275,0,0,0,.258-.289.286.286,0,0,0-.192-.278l-.984-.3a.99.99,0,0,1-.691-.949.974.974,0,0,1,.933-.986V5.6a.175.175,0,0,1,.175-.175h.35a.175.175,0,0,1,.175.175v.356a1.251,1.251,0,0,1,.686.248.175.175,0,0,1,.012.266l-.257.245a.18.18,0,0,1-.222.016.525.525,0,0,0-.28-.081h-.615a.275.275,0,0,0-.258.289.286.286,0,0,0,.192.278l.984.3a.99.99,0,0,1,.691.949.974.974,0,0,1-.933.986Z" transform="translate(-0.001)"/></svg>