<svg xmlns="http://www.w3.org/2000/svg" xmlns:xlink="http://www.w3.org/1999/xlink" width="164" height="164" viewBox="0 0 164 164"><defs><style>.a,.c{fill:#d2d2d2;}.a{stroke:#707070;}.b{clip-path:url(#a);}</style><clipPath id="a"><rect class="a" width="164" height="164" transform="translate(27 321)"/></clipPath></defs><g class="b" transform="translate(-27 -321)"><path class="c" d="M95.51,50.165A39.792,39.792,0,0,0,47.4,60.672L65.078,78.354a5.119,5.119,0,1,1-7.24,7.24L41.758,69.513.723,153.666a7.266,7.266,0,0,0,0,6.311,7.2,7.2,0,0,0,9.61,3.3l42.8-20.886L37.369,126.629a5.085,5.085,0,0,1,0-7.24,5.143,5.143,0,0,1,7.24,0l18.259,18.259L95.542,121.7a39.8,39.8,0,0,0-.032-71.531Zm29.5-11.18C131.26,25.947,128.024,10.539,115.307,0c-16.113,13.358-16.818,34.436-2.531,48.659l2.563,2.563C129.562,65.509,150.672,64.8,164,48.691c-10.539-12.717-25.947-15.953-38.985-9.706Z" transform="translate(27 321)"/></g></svg>