<svg xmlns="http://www.w3.org/2000/svg" width="14" height="14" viewBox="0 0 14 14"><path d="M8.93,5.069a4.154,4.154,0,0,1,.01,5.868l-.01.01L7.093,12.784A4.156,4.156,0,0,1,1.215,6.906L2.23,5.892a.437.437,0,0,1,.746.29,5.039,5.039,0,0,0,.265,1.442.44.44,0,0,1-.1.454l-.358.358a1.969,1.969,0,1,0,2.766,2.8L7.383,9.4a1.968,1.968,0,0,0,0-2.784A2.048,2.048,0,0,0,7.1,6.381a.439.439,0,0,1-.19-.345,1.089,1.089,0,0,1,.32-.815l.576-.576A.439.439,0,0,1,8.369,4.6a4.169,4.169,0,0,1,.561.47Zm3.854-3.854a4.161,4.161,0,0,0-5.878,0L5.069,3.052l-.01.01A4.157,4.157,0,0,0,5.63,9.4a.439.439,0,0,0,.563-.047l.576-.576a1.089,1.089,0,0,0,.32-.815.439.439,0,0,0-.19-.345,2.048,2.048,0,0,1-.283-.234,1.968,1.968,0,0,1,0-2.784L8.453,2.762a1.969,1.969,0,1,1,2.766,2.8l-.358.358a.44.44,0,0,0-.1.454,5.039,5.039,0,0,1,.265,1.442.437.437,0,0,0,.746.29l1.015-1.015a4.161,4.161,0,0,0,0-5.878Z" transform="translate(0.001 0.001)"/></svg>