<svg xmlns="http://www.w3.org/2000/svg" width="169" height="64.007" viewBox="0 0 169 64.007"><defs><style>.a{fill:#fff;}.b{fill:#a01d21;}</style></defs><path d="M158.1,77.674l-9.454,53.977H131.721l9.454-53.977Z" transform="translate(-131.721 -67.644)"/><path d="M214.759,131.651H197.833l-13.19-27.141-4.727,27.141H162.992l9.454-53.977h16.925l13.113,27.6,4.8-27.6h16.926Z" transform="translate(-140.652 -67.644)"/><path d="M334.352,131.651H317.426L304.237,104.51l-4.727,27.141H282.585l9.453-53.977h16.926l13.113,27.6,4.8-27.6h16.925Z" transform="translate(-174.806 -67.644)"/><circle class="a" cx="26.989" cy="26.989" r="26.989" transform="translate(68.788 10.03)"/><path class="b" d="M278.285,93.931a23.092,23.092,0,0,1-5.449,6.375.216.216,0,0,1-.031.023,21.939,21.939,0,0,1-2.79,1.727c.141-1.352.241-2.712.289-4.086.037-1.064.05-2.121.016-3.17a56.531,56.531,0,0,0-1.15-10.35q-.394-1.895-.914-3.746c-.04-.153-.084-.3-.127-.454-.046-.166-.094-.329-.146-.492a56.387,56.387,0,0,0-7.766-16.125c.031,1.115.024,2.242-.015,3.373a56.909,56.909,0,0,1-1.207,9.863c-.021.094-.04.19-.061.284s-.043.186-.064.283v0a56.482,56.482,0,0,1-10.04,21.728,23.012,23.012,0,0,1-5.121-18.22c0-.058.016-.118.024-.175a23.1,23.1,0,0,0-4.647,4.037c-.034.035-.066.074-.1.111a21.123,21.123,0,0,0-1.731,2.263c-.071.1-.138.2-.2.3-.279.427-.547.867-.8,1.315a22.752,22.752,0,0,0-1.725,3.9.01.01,0,0,1,0,.009,22.572,22.572,0,0,0-1.131,4.3c-.008.042-.013.088-.02.13a22.426,22.426,0,0,0-.251,2.685,19.563,19.563,0,0,0,.024,1.987,22.386,22.386,0,0,0,2.68,9.586c.034.059.074.13.106.192a22.685,22.685,0,0,0,19.091,11.723,23.04,23.04,0,0,0,3.095-.1.034.034,0,0,0,.018,0,22.987,22.987,0,0,0,16.335-8.985c.035-.044.067-.092.1-.136l.009-.011c.032-.045.067-.089.1-.134a22.884,22.884,0,0,0,3.8-8.039c0-.006,0-.012,0-.021a19.841,19.841,0,0,0-.18-11.874" transform="translate(-160.678 -63.635)"/></svg>