<svg xmlns="http://www.w3.org/2000/svg" width="93.177" height="35.29" viewBox="0 0 93.177 35.29"><defs><style>.a{fill:#fff;}.b{fill:#a01d21;}</style></defs><g transform="translate(-131.721 -63.635)"><path class="a" d="M146.265,77.674l-5.212,29.76h-9.332l5.212-29.76Z" transform="translate(0 -8.509)"/><path class="a" d="M191.534,107.434H182.2L174.93,92.47l-2.606,14.964h-9.332l5.212-29.76h9.332l7.23,15.216,2.648-15.216h9.332Z" transform="translate(-18.954 -8.509)"/><path class="a" d="M311.127,107.434h-9.332L294.523,92.47l-2.606,14.964h-9.332l5.212-29.76h9.332l7.23,15.216,2.648-15.216h9.332Z" transform="translate(-91.44 -8.509)"/><circle cx="14.88" cy="14.88" r="14.88" transform="translate(169.647 69.165)"/><path class="b" d="M258.019,80.339a12.731,12.731,0,0,1-3,3.515l-.017.013a12.1,12.1,0,0,1-1.539.952c.078-.746.133-1.5.159-2.253.02-.587.028-1.169.009-1.748a31.17,31.17,0,0,0-.634-5.706q-.217-1.045-.5-2.065c-.022-.084-.046-.167-.07-.25s-.052-.181-.081-.271a31.09,31.09,0,0,0-4.282-8.89c.017.615.013,1.236-.008,1.86a31.382,31.382,0,0,1-.666,5.438c-.012.052-.022.1-.034.156s-.024.1-.035.156v0a31.14,31.14,0,0,1-5.535,11.98,12.688,12.688,0,0,1-2.823-10.045c0-.032.009-.065.013-.1a12.735,12.735,0,0,0-2.562,2.226c-.019.019-.037.041-.054.061a11.648,11.648,0,0,0-.954,1.247c-.039.056-.076.109-.111.165-.154.236-.3.478-.439.725a12.545,12.545,0,0,0-.951,2.15.006.006,0,0,1,0,0,12.443,12.443,0,0,0-.624,2.371c0,.023-.007.048-.011.072a12.365,12.365,0,0,0-.139,1.48,10.783,10.783,0,0,0,.013,1.1,12.342,12.342,0,0,0,1.478,5.285c.019.033.041.072.058.106A12.507,12.507,0,0,0,245.2,96.537a12.7,12.7,0,0,0,1.706-.056.019.019,0,0,0,.01,0,12.674,12.674,0,0,0,9.006-4.954c.019-.024.037-.051.056-.075l.005-.006.054-.074a12.617,12.617,0,0,0,2.094-4.432s0-.007,0-.012a10.939,10.939,0,0,0-.1-6.546" transform="translate(-61.456)"/></g></svg>