<svg xmlns="http://www.w3.org/2000/svg" xmlns:xlink="http://www.w3.org/1999/xlink" width="72" height="72" viewBox="0 0 72 72"><defs><style>.a{fill:none;stroke:#707070;}.b{clip-path:url(#a);}</style><clipPath id="a"><rect class="a" width="72" height="72"/></clipPath></defs><g class="b"><path d="M40.5,11.357V8.75h2.25A2.249,2.249,0,0,0,45,6.5V4.25A2.249,2.249,0,0,0,42.75,2H29.25A2.249,2.249,0,0,0,27,4.25V6.5a2.249,2.249,0,0,0,2.25,2.25H31.5v2.607A31.481,31.481,0,0,0,4.5,42.5h63A31.481,31.481,0,0,0,40.5,11.357ZM69.75,47H2.25A2.249,2.249,0,0,0,0,49.25v4.5A2.249,2.249,0,0,0,2.25,56h67.5A2.249,2.249,0,0,0,72,53.75v-4.5A2.249,2.249,0,0,0,69.75,47Z" transform="translate(0 7)"/></g></svg>