<svg xmlns="http://www.w3.org/2000/svg" xmlns:xlink="http://www.w3.org/1999/xlink" width="164" height="164" viewBox="0 0 164 164"><defs><style>.a,.c{fill:#d2d2d2;}.a{stroke:#707070;}.b{clip-path:url(#a);}</style><clipPath id="a"><rect class="a" width="164" height="164" transform="translate(24 430)"/></clipPath></defs><g class="b" transform="translate(-24 -430)"><path class="c" d="M164,68.333a18.14,18.14,0,0,0-9.111-15.694V9.114C154.889,6.623,152.9,0,145.778,0a9.09,9.09,0,0,0-5.689,2l-24.21,19.37a69.106,69.106,0,0,1-42.99,15.076H18.222A18.221,18.221,0,0,0,0,54.667V82a18.221,18.221,0,0,0,18.222,18.222h9.6a69.19,69.19,0,0,0-.621,9.111,72.127,72.127,0,0,0,7.278,31.587,8.935,8.935,0,0,0,8.086,4.857H63.709c7.417,0,11.87-8.5,7.374-14.4a36.258,36.258,0,0,1-7.445-22.049,34.455,34.455,0,0,1,1.256-9.111h8A69.092,69.092,0,0,1,115.876,115.3l24.21,19.37a9.117,9.117,0,0,0,5.689,2c7.1,0,9.111-6.486,9.111-9.111V84.03A18.145,18.145,0,0,0,164,68.333ZM136.667,108.6l-9.41-7.528A87.353,87.353,0,0,0,72.889,82V54.667A87.353,87.353,0,0,0,127.257,35.6l9.41-7.528Z" transform="translate(24 439.111)"/></g></svg>