<svg xmlns="http://www.w3.org/2000/svg" xmlns:xlink="http://www.w3.org/1999/xlink" width="164" height="164" viewBox="0 0 164 164"><defs><style>.a,.c{fill:#d2d2d2;}.a{stroke:#707070;}.b{clip-path:url(#a);}</style><clipPath id="a"><rect class="a" width="164" height="164" transform="translate(26 353)"/></clipPath></defs><g class="b" transform="translate(-26 -353)"><path class="c" d="M35.882,41A25.552,25.552,0,0,1,48.694,18.93V82H64.069V15.375H79.444V82H94.819V18.93A25.552,25.552,0,0,1,107.632,41V82h15.375V41a41,41,0,0,0-41-41h-20.5a41,41,0,0,0-41,41V82H35.882Zm107.08,68.515-3.427-10.25A10.264,10.264,0,0,0,129.8,92.25H13.684a10.264,10.264,0,0,0-9.737,7.015L.519,109.515A10.275,10.275,0,0,0,10.257,123v35.875A5.14,5.14,0,0,0,15.382,164h10.25a5.14,5.14,0,0,0,5.125-5.125V123h82v35.875A5.14,5.14,0,0,0,117.882,164h10.25a5.14,5.14,0,0,0,5.125-5.125V123A10.243,10.243,0,0,0,142.962,109.515Z" transform="translate(36.252 353)"/></g></svg>