<svg xmlns="http://www.w3.org/2000/svg" xmlns:xlink="http://www.w3.org/1999/xlink" width="72" height="72" viewBox="0 0 72 72"><defs><style>.a{stroke:#707070;}.b{clip-path:url(#a);}</style><clipPath id="a"><rect class="a" width="72" height="72"/></clipPath></defs><g class="b"><path d="M41.932,22.024a17.47,17.47,0,0,0-21.123,4.613L28.572,34.4a2.247,2.247,0,1,1-3.178,3.178l-7.06-7.06L.318,67.463a3.19,3.19,0,0,0,0,2.771,3.162,3.162,0,0,0,4.219,1.449l18.789-9.169-6.919-6.919a2.233,2.233,0,0,1,0-3.178,2.258,2.258,0,0,1,3.178,0L27.6,60.431l14.345-7a17.471,17.471,0,0,0-.014-31.4Zm12.953-4.908C57.627,11.391,56.207,4.627,50.623,0c-7.074,5.865-7.383,15.118-1.111,21.363l1.125,1.125C56.882,28.76,66.15,28.451,72,21.377c-4.627-5.583-11.391-7-17.115-4.261Z" transform="translate(-0.001)"/></g></svg>