<svg xmlns="http://www.w3.org/2000/svg" xmlns:xlink="http://www.w3.org/1999/xlink" width="16" height="16" viewBox="0 0 16 16"><defs><style>.a{fill:#fff;stroke:#707070;}.b{clip-path:url(#a);}</style><clipPath id="a"><rect class="a" width="16" height="16" transform="translate(27 290)"/></clipPath></defs><g class="b" transform="translate(-27 -290)"><path d="M4.8,9.6H9.6A2.4,2.4,0,0,0,12,7.2h.8a3.2,3.2,0,0,0,0-6.4H3a.6.6,0,0,0-.6.6V7.2A2.4,2.4,0,0,0,4.8,9.6Zm8-7.2a1.6,1.6,0,0,1,0,3.2H12V2.4ZM13.991,12H1.207c-1.19,0-1.525-1.6-.9-1.6H14.889c.625,0,.295,1.6-.9,1.6Z" transform="translate(27.001 291.601)"/></g></svg>