<svg xmlns="http://www.w3.org/2000/svg" xmlns:xlink="http://www.w3.org/1999/xlink" width="164" height="164" viewBox="0 0 164 164"><defs><style>.a,.c{fill:#d2d2d2;}.a{stroke:#707070;}.b{clip-path:url(#a);}</style><clipPath id="a"><rect class="a" width="164" height="164" transform="translate(27 290)"/></clipPath></defs><g class="b" transform="translate(-27 -290)"><path class="c" d="M49.209,90.992H98.4a24.6,24.6,0,0,0,24.6-24.6h8.2A32.8,32.8,0,0,0,131.2.8H30.76a6.135,6.135,0,0,0-6.149,6.149V66.394A24.6,24.6,0,0,0,49.209,90.992ZM131.2,17.2a16.4,16.4,0,1,1,0,32.8H123V17.2Zm12.222,98.391H12.389c-12.2,0-15.63-16.4-9.224-16.4H152.622c6.406,0,3.023,16.4-9.2,16.4Z" transform="translate(27.001 313.805)"/></g></svg>