<svg xmlns="http://www.w3.org/2000/svg" width="95" height="63.333" viewBox="0 0 95 63.333"><defs><style>.a{fill:#a20a0a;}</style></defs><path class="a" d="M91.042,64H14.514a3.958,3.958,0,0,0-3.958,3.958v1.319h-6.6A3.958,3.958,0,0,0,0,73.236V118.1a9.236,9.236,0,0,0,9.236,9.236H87.083A7.917,7.917,0,0,0,95,119.417V67.958A3.958,3.958,0,0,0,91.042,64ZM9.236,119.417A1.319,1.319,0,0,1,7.917,118.1v-40.9h2.639v40.9A1.319,1.319,0,0,1,9.236,119.417Zm38.924-2.639H23.09a1.979,1.979,0,0,1-1.979-1.979v-1.319A1.979,1.979,0,0,1,23.09,111.5H48.16a1.979,1.979,0,0,1,1.979,1.979V114.8A1.979,1.979,0,0,1,48.16,116.778Zm34.306,0H57.4a1.979,1.979,0,0,1-1.979-1.979v-1.319A1.979,1.979,0,0,1,57.4,111.5H82.465a1.979,1.979,0,0,1,1.979,1.979V114.8A1.979,1.979,0,0,1,82.465,116.778ZM48.16,100.944H23.09a1.979,1.979,0,0,1-1.979-1.979V97.646a1.979,1.979,0,0,1,1.979-1.979H48.16a1.979,1.979,0,0,1,1.979,1.979v1.319A1.979,1.979,0,0,1,48.16,100.944Zm34.306,0H57.4a1.979,1.979,0,0,1-1.979-1.979V97.646A1.979,1.979,0,0,1,57.4,95.667H82.465a1.979,1.979,0,0,1,1.979,1.979v1.319A1.979,1.979,0,0,1,82.465,100.944Zm0-15.833H23.09a1.979,1.979,0,0,1-1.979-1.979v-6.6a1.979,1.979,0,0,1,1.979-1.979H82.465a1.979,1.979,0,0,1,1.979,1.979v6.6A1.979,1.979,0,0,1,82.465,85.111Z" transform="translate(0 -64)"/></svg>