<svg xmlns="http://www.w3.org/2000/svg" xmlns:xlink="http://www.w3.org/1999/xlink" width="16" height="16" viewBox="0 0 16 16"><defs><style>.a{fill:none;stroke:#707070;}.b{clip-path:url(#a);}.c{fill:#a20a0a;}</style><clipPath id="a"><rect class="a" width="16" height="16" transform="translate(26 150)"/></clipPath></defs><g class="b" transform="translate(-26 -150)"><path class="c" d="M9,4.079V3.5h.5A.5.5,0,0,0,10,3V2.5A.5.5,0,0,0,9.5,2h-3a.5.5,0,0,0-.5.5V3a.5.5,0,0,0,.5.5H7v.579A7,7,0,0,0,1,11H15A7,7,0,0,0,9,4.079ZM15.5,12H.5a.5.5,0,0,0-.5.5v1a.5.5,0,0,0,.5.5h15a.5.5,0,0,0,.5-.5v-1A.5.5,0,0,0,15.5,12Z" transform="translate(26 150)"/></g></svg>