<svg xmlns="http://www.w3.org/2000/svg" width="95" height="95.001" viewBox="0 0 95 95.001"><defs><style>.a{fill:#a20a0a;}</style></defs><path class="a" d="M37.918.9A47.249,47.249,0,0,0,.975,37.713C-5.891,72.411,25.412,98.277,49,94.621c7.645-1.188,11.393-10.131,7.886-17.015a12.554,12.554,0,0,1,11.3-18.258H82.97A12.14,12.14,0,0,0,95.012,47.231,47.537,47.537,0,0,0,37.918.9Zm-20.1,58.449a5.938,5.938,0,1,1,5.938-5.938A5.931,5.931,0,0,1,17.823,59.348ZM23.761,35.6A5.938,5.938,0,1,1,29.7,29.66,5.931,5.931,0,0,1,23.761,35.6ZM47.511,23.722a5.938,5.938,0,1,1,5.938-5.938A5.931,5.931,0,0,1,47.511,23.722ZM71.262,35.6A5.938,5.938,0,1,1,77.2,29.66,5.931,5.931,0,0,1,71.262,35.6Z" transform="translate(-0.012 0.035)"/></svg>