<svg xmlns="http://www.w3.org/2000/svg" width="72" height="72" viewBox="0 0 72 72"><path d="M22.355.019a4.638,4.638,0,0,0-4.968,3.392L15.3,11.324c26.385.772,44.234,18.368,45.35,44.58l8.007-2.219a4.64,4.64,0,0,0,3.322-5.049C69.047,23.213,47.937,2.433,22.355.019ZM14.132,15.769.091,69.137A2.28,2.28,0,0,0,2.9,71.914l53.3-14.78C55.6,32.539,38.893,16.05,14.132,15.775ZM18.014,58.5a4.5,4.5,0,1,1,4.5-4.5A4.5,4.5,0,0,1,18.014,58.5Zm6.75-21.376a4.5,4.5,0,1,1,4.5-4.5A4.5,4.5,0,0,1,24.764,37.124ZM39.389,51.749a4.5,4.5,0,1,1,4.5-4.5A4.5,4.5,0,0,1,39.389,51.749Z" transform="translate(-0.015 0.003)"/></svg>