<svg xmlns="http://www.w3.org/2000/svg" width="42" height="42" viewBox="0 0 42 42"><defs><style>.a{fill:#d2d2d2;}</style></defs><path class="a" d="M29,8A21,21,0,1,0,50,29,21,21,0,0,0,29,8ZM41.194,31.371a1.019,1.019,0,0,1-1.016,1.016h-7.79v7.79a1.019,1.019,0,0,1-1.016,1.016H26.629a1.019,1.019,0,0,1-1.016-1.016v-7.79h-7.79a1.019,1.019,0,0,1-1.016-1.016V26.629a1.019,1.019,0,0,1,1.016-1.016h7.79v-7.79a1.019,1.019,0,0,1,1.016-1.016h4.742a1.019,1.019,0,0,1,1.016,1.016v7.79h7.79a1.019,1.019,0,0,1,1.016,1.016Z" transform="translate(-8 -8)"/></svg>