<svg xmlns="http://www.w3.org/2000/svg" width="14" height="14" viewBox="0 0 14 14"><defs><style>.a{fill:#fff;}</style></defs><path class="a" d="M12.25,5.25V2.112a.876.876,0,0,0-.256-.619L10.756.256A.875.875,0,0,0,10.137,0H2.625A.875.875,0,0,0,1.75.875V5.25A1.75,1.75,0,0,0,0,7v3.063a.437.437,0,0,0,.438.438H1.75v2.625A.875.875,0,0,0,2.625,14h8.75a.875.875,0,0,0,.875-.875V10.5h1.313A.437.437,0,0,0,14,10.063V7A1.75,1.75,0,0,0,12.25,5.25Zm-1.75,7h-7V9.625h7Zm0-6.125h-7V1.75H8.75V3.063a.437.437,0,0,0,.438.438H10.5Zm1.313,1.969a.656.656,0,1,1,.656-.656A.656.656,0,0,1,11.813,8.094Z"/></svg>