<svg xmlns="http://www.w3.org/2000/svg" xmlns:xlink="http://www.w3.org/1999/xlink" width="16" height="16" viewBox="0 0 16 16"><defs><style>.a,.c{fill:#a20a0a;}.a{stroke:#707070;}.b{clip-path:url(#a);}</style><clipPath id="a"><rect class="a" width="16" height="16" transform="translate(26 353)"/></clipPath></defs><g class="b" transform="translate(-26 -353)"><path class="c" d="M16.258,8.258a8,8,0,1,1-8-8A8,8,0,0,1,16.258,8.258ZM8.473,2.9A4.178,4.178,0,0,0,4.713,4.96a.388.388,0,0,0,.088.524l1.119.849a.387.387,0,0,0,.538-.068c.576-.731.971-1.155,1.848-1.155.659,0,1.474.424,1.474,1.063,0,.483-.4.731-1.049,1.1-.759.425-1.763.955-1.763,2.279v.129a.387.387,0,0,0,.387.387H9.161a.387.387,0,0,0,.387-.387V9.634c0-.918,2.683-.956,2.683-3.441C12.232,4.323,10.291,2.9,8.473,2.9Zm-.215,8a1.484,1.484,0,1,0,1.484,1.484A1.486,1.486,0,0,0,8.258,10.9Z" transform="translate(25.742 352.742)"/></g></svg>