<svg xmlns="http://www.w3.org/2000/svg" xmlns:xlink="http://www.w3.org/1999/xlink" width="16" height="16" viewBox="0 0 16 16"><defs><style>.a{fill:#fff;stroke:#707070;}.b{clip-path:url(#a);}</style><clipPath id="a"><rect class="a" width="16" height="16" transform="translate(26 353)"/></clipPath></defs><g class="b" transform="translate(-26 -353)"><path d="M7.755.532,5.8,4.492l-4.369.637A.957.957,0,0,0,.9,6.762l3.161,3.08-.748,4.351A.956.956,0,0,0,4.7,15.2l3.909-2.055L12.522,15.2a.957.957,0,0,0,1.388-1.008l-.748-4.351,3.161-3.08a.957.957,0,0,0-.529-1.633l-4.369-.637L9.471.532a.958.958,0,0,0-1.717,0Z" transform="translate(25.387 353.343)"/></g></svg>