<svg xmlns="http://www.w3.org/2000/svg" xmlns:xlink="http://www.w3.org/1999/xlink" width="16" height="16" viewBox="0 0 16 16"><defs><style>.a{fill:none;stroke:#707070;}.b{clip-path:url(#a);}</style><clipPath id="a"><rect class="a" width="16" height="16" transform="translate(26 181)"/></clipPath></defs><g class="b" transform="translate(-26 -181)"><path d="M11.2.1,10,1.5,8.3.1a.5.5,0,0,0-.6,0L6,1.5,4.3.1a.5.5,0,0,0-.6,0L2,1.5.8.1A.5.5,0,0,0,0,.5v15a.5.5,0,0,0,.8.4L2,14.5l1.7,1.4a.5.5,0,0,0,.6,0L6,14.5l1.7,1.4a.5.5,0,0,0,.6,0L10,14.5l1.2,1.4a.5.5,0,0,0,.8-.4V.5a.5.5,0,0,0-.8-.4ZM10,11.249a.251.251,0,0,1-.25.25H2.25a.251.251,0,0,1-.25-.25v-.5a.251.251,0,0,1,.25-.25h7.5a.251.251,0,0,1,.25.25Zm0-3a.251.251,0,0,1-.25.25H2.25A.251.251,0,0,1,2,8.249v-.5a.251.251,0,0,1,.25-.25h7.5a.251.251,0,0,1,.25.25Zm0-3a.251.251,0,0,1-.25.25H2.25A.251.251,0,0,1,2,5.249v-.5a.251.251,0,0,1,.25-.25h7.5a.251.251,0,0,1,.25.25Z" transform="translate(28.001 181.001)"/></g></svg>