<svg xmlns="http://www.w3.org/2000/svg" xmlns:xlink="http://www.w3.org/1999/xlink" width="84" height="85" viewBox="0 0 84 85"><defs><style>.a{fill:none;}.b{fill:url(#a);}.c{fill:url(#b);}.d,.g,.j,.m,.p,.s{opacity:0.54;}.d{fill:url(#c);}.e{fill:url(#d);}.f{fill:url(#e);}.g{fill:url(#f);}.h{fill:url(#g);}.i{fill:url(#h);}.j{fill:url(#i);}.k{fill:url(#j);}.l{fill:url(#k);}.m{fill:url(#l);}.n{fill:url(#m);}.o{fill:url(#n);}.p{fill:url(#o);}.q{fill:url(#p);}.r{fill:url(#q);}.s{fill:url(#r);}.t{fill:url(#s);}.u{fill:url(#t);}.v{clip-path:url(#u);}.w{fill:url(#v);}.x{fill:url(#w);}.y{opacity:0.9;fill:url(#x);}.z{fill:url(#y);}.aa{opacity:0.4;fill:url(#z);}</style><linearGradient id="a" x1="0.497" y1="0.334" x2="0.522" y2="0.823" gradientUnits="objectBoundingBox"><stop offset="0" stop-color="#5b24c6"/><stop offset="0.5" stop-color="#8b4ce3"/><stop offset="1" stop-color="#b971ff"/></linearGradient><linearGradient id="b" x1="-0.029" y1="0.4" x2="0.967" y2="0.722" gradientUnits="objectBoundingBox"><stop offset="0.125" stop-color="#5b24c6"/><stop offset="0.461" stop-color="#8949e1"/><stop offset="0.76" stop-color="#ab66f7"/><stop offset="0.921" stop-color="#b971ff"/></linearGradient><linearGradient id="c" x1="1.098" y1="1.199" x2="0.436" y2="0.39" gradientUnits="objectBoundingBox"><stop offset="0" stop-color="#fff"/><stop offset="0.085" stop-color="#fff" stop-opacity="0.875"/><stop offset="0.279" stop-color="#fff" stop-opacity="0.612"/><stop offset="0.463" stop-color="#fff" stop-opacity="0.396"/><stop offset="0.632" stop-color="#fff" stop-opacity="0.224"/><stop offset="0.784" stop-color="#fff" stop-opacity="0.102"/><stop offset="0.911" stop-color="#fff" stop-opacity="0.027"/><stop offset="1" stop-color="#fff" stop-opacity="0"/></linearGradient><linearGradient id="d" x1="0.477" y1="0.375" x2="0.567" y2="0.859" gradientUnits="objectBoundingBox"><stop offset="0.084" stop-color="#5b24c6"/><stop offset="1" stop-color="#b971ff"/></linearGradient><linearGradient id="e" x1="-0.037" y1="0.654" x2="1.003" y2="0.273" gradientUnits="objectBoundingBox"><stop offset="0.191" stop-color="#5b24c6"/><stop offset="0.503" stop-color="#8949e1"/><stop offset="0.782" stop-color="#ab66f7"/><stop offset="0.932" stop-color="#b971ff"/></linearGradient><linearGradient id="f" x1="0.883" y1="0.896" x2="0.306" y2="0.503" xlink:href="#c"/><linearGradient id="g" x1="0.448" y1="0.53" x2="0.877" y2="0.704" gradientUnits="objectBoundingBox"><stop offset="0.141" stop-color="#5b24c6"/><stop offset="0.396" stop-color="#8244dd"/><stop offset="0.688" stop-color="#a964f5"/><stop offset="0.84" stop-color="#b971ff"/></linearGradient><linearGradient id="h" x1="0.35" y1="0.973" x2="0.963" y2="0.087" gradientUnits="objectBoundingBox"><stop offset="0.012" stop-color="#5b24c6"/><stop offset="0.337" stop-color="#8345de"/><stop offset="0.693" stop-color="#aa64f6"/><stop offset="0.88" stop-color="#b971ff"/></linearGradient><linearGradient id="i" x1="1.156" y1="-0.124" x2="0.468" y2="0.551" xlink:href="#c"/><linearGradient id="j" x1="0.503" y1="0.334" x2="0.478" y2="0.823" xlink:href="#a"/><linearGradient id="k" x1="1.029" y1="0.4" x2="0.033" y2="0.722" xlink:href="#b"/><linearGradient id="l" x1="-0.098" y1="1.199" x2="0.564" y2="0.39" xlink:href="#c"/><linearGradient id="m" x1="0.477" y1="0.625" x2="0.567" y2="0.141" xlink:href="#d"/><linearGradient id="n" x1="1.037" y1="0.654" x2="-0.003" y2="0.273" xlink:href="#e"/><linearGradient id="o" x1="0.117" y1="0.896" x2="0.694" y2="0.503" xlink:href="#c"/><linearGradient id="p" x1="0.552" y1="0.53" x2="0.123" y2="0.704" xlink:href="#g"/><linearGradient id="q" x1="0.65" y1="0.973" x2="0.037" y2="0.087" xlink:href="#h"/><linearGradient id="r" x1="-0.156" y1="-0.124" x2="0.532" y2="0.551" xlink:href="#c"/><linearGradient id="s" x1="-0.116" y1="0.897" x2="0.612" y2="0.428" gradientUnits="objectBoundingBox"><stop offset="0" stop-color="#5b24c6"/><stop offset="0.159" stop-color="#6e33d1"/><stop offset="0.796" stop-color="#b971ff"/></linearGradient><linearGradient id="t" x1="0.5" y1="1.011" x2="0.5" y2="-0.034" gradientUnits="objectBoundingBox"><stop offset="0.195" stop-color="#5b24c6"/><stop offset="0.295" stop-color="#6930cf"/><stop offset="0.845" stop-color="#b971ff"/></linearGradient><clipPath id="u"><path class="a" d="M215.672,74.064a24.948,24.948,0,0,0-11.435,17.472c1.821,13.729,22.583,13.729,24.4,0a24.949,24.949,0,0,0-11.435-17.472l-.111-.07q-.325-.2-.656-.394-.332.192-.656.394Z" transform="translate(-204.237 -73.6)"/></clipPath><linearGradient id="v" x1="19.314" y1="39.778" x2="19.314" y2="40.845" gradientUnits="objectBoundingBox"><stop offset="0.102" stop-color="#0c83e5"/><stop offset="0.355" stop-color="#2eb4ed"/><stop offset="0.625" stop-color="#50e2f5"/><stop offset="0.761" stop-color="#5df5f9"/></linearGradient><linearGradient id="w" x1="22.329" y1="45.982" x2="22.329" y2="47.049" xlink:href="#v"/><linearGradient id="x" x1="-3.942" y1="3.241" x2="-4.266" y2="4.025" gradientUnits="objectBoundingBox"><stop offset="0" stop-color="#fff"/><stop offset="1" stop-color="#fff" stop-opacity="0"/></linearGradient><linearGradient id="y" x1="1.255" y1="-0.089" x2="0.107" y2="0.927" gradientUnits="objectBoundingBox"><stop offset="0" stop-color="#5b24c6"/><stop offset="0.154" stop-color="#6930cf"/><stop offset="1" stop-color="#b971ff"/></linearGradient><linearGradient id="z" x1="-0.018" y1="-0.029" x2="0.815" y2="0.788" gradientUnits="objectBoundingBox"><stop offset="0" stop-color="#fff"/><stop offset="0.152" stop-color="#fff" stop-opacity="0.831"/><stop offset="0.574" stop-color="#fff" stop-opacity="0.388"/><stop offset="0.865" stop-color="#fff" stop-opacity="0.11"/><stop offset="1" stop-color="#fff" stop-opacity="0"/></linearGradient></defs><g transform="translate(-0.1 0.071)"><rect class="a" width="84" height="85" transform="translate(0.1 -0.071)"/><g transform="translate(2.738 15.714)"><g transform="translate(36.869 5.233)"><g transform="translate(0.593 30.275)"><path class="b" d="M243.546,206.771c.119,6.706,3.374,12.7,9.066,15.338s12.368,1.266,17.568-2.969Z" transform="translate(-243.546 -206.771)"/><path class="c" d="M282.49,231.308c-4.255.4-6.781,6.053-3.656,9.344,5.371,1.857,11.413.383,16.2-3.518Z" transform="translate(-268.403 -224.765)"/><path class="d" d="M250.131,209.83l-6.585-3.059c.119,6.706,3.374,12.7,9.066,15.338a14.457,14.457,0,0,0,1.366.548S247.711,219.137,250.131,209.83Z" transform="translate(-243.546 -206.771)"/></g><g transform="translate(0 19.193)"><ellipse class="e" cx="19.462" cy="8.503" rx="19.462" ry="8.503" transform="translate(0 10.592) rotate(-15.79)"/><path class="f" d="M321.856,184.522c-4.412-3.036-10.684-4.311-17.269-3.218-11.565,4.561-7.713,18.18,4.527,16.009,6.183-2.517,10.858-6.888,13.026-11.785l.04-.09q.114-.263.22-.527-.228-.17-.463-.334Z" transform="translate(-282.632 -176.729)"/><path class="g" d="M255.414,207.363A20.373,20.373,0,0,0,250,214.9c5.123,3.832,13.037,5.15,21.041,2.886a29.821,29.821,0,0,0,3.127-1.076S259.72,221.564,255.414,207.363Z" transform="translate(-247.686 -196.123)"/></g><g transform="translate(2.314 0)"><path class="h" d="M250,131.194c9.6-.091,18.206-4.679,22.056-12.792s1.958-17.684-4.042-25.175Z" transform="translate(-250 -93.227)"/><path class="i" d="M285.736,111.112c.524,6.093,8.582,9.775,13.329,5.342,2.72-7.665.683-16.327-4.843-23.227Z" transform="translate(-276.207 -93.227)"/><path class="j" d="M253.182,188.371,250,195.078c9.6-.091,18.206-4.679,22.056-12.792a20.69,20.69,0,0,0,.8-1.948S265.108,190.15,253.182,188.371Z" transform="translate(-250 -157.111)"/></g></g><g transform="translate(0 5.233)"><g transform="translate(14.856 30.275)"><path class="k" d="M270.179,206.771c-.119,6.706-3.374,12.7-9.065,15.338s-12.368,1.266-17.568-2.969Z" transform="translate(-243.546 -206.771)"/><path class="l" d="M289.987,231.308c4.254.4,6.781,6.053,3.656,9.344-5.371,1.857-11.412.383-16.2-3.518Z" transform="translate(-277.441 -224.765)"/><path class="m" d="M247.392,209.83l6.585-3.059c-.119,6.706-3.374,12.7-9.065,15.338a14.471,14.471,0,0,1-1.366.548S249.812,219.137,247.392,209.83Z" transform="translate(-227.344 -206.771)"/></g><g transform="translate(0 19.193)"><ellipse class="n" cx="19.461" cy="8.503" rx="19.461" ry="8.503" transform="matrix(-0.962, -0.272, 0.272, -0.962, 37.454, 26.956)"/><path class="o" d="M298.2,184.522c4.412-3.036,10.684-4.311,17.269-3.218,11.565,4.561,7.713,18.18-4.527,16.009-6.183-2.517-10.858-6.888-13.026-11.785l-.04-.09q-.114-.263-.22-.527.228-.17.463-.334Z" transform="translate(-295.338 -176.729)"/><path class="p" d="M268.754,207.363a20.375,20.375,0,0,1,5.414,7.534c-5.123,3.832-13.037,5.15-21.041,2.886A29.821,29.821,0,0,1,250,216.707S264.448,221.564,268.754,207.363Z" transform="translate(-234.4 -196.123)"/></g><g transform="translate(15.71 0)"><path class="q" d="M274.058,131.194c-9.6-.091-18.206-4.679-22.056-12.792s-1.958-17.684,4.042-25.175Z" transform="translate(-250 -93.227)"/><path class="r" d="M300.263,111.112c-.524,6.093-8.582,9.774-13.328,5.342-2.72-7.665-.683-16.327,4.843-23.227Z" transform="translate(-285.733 -93.227)"/><path class="s" d="M269.675,188.371l3.182,6.707c-9.6-.091-18.206-4.679-22.056-12.792a20.715,20.715,0,0,1-.8-1.948S257.749,190.15,269.675,188.371Z" transform="translate(-248.799 -157.111)"/></g></g><g transform="translate(26.71 0)"><ellipse class="t" cx="12.473" cy="21.6" rx="12.473" ry="21.6" transform="translate(0)"/><path class="u" d="M215.672,74.064a24.948,24.948,0,0,0-11.435,17.472c1.821,13.729,22.583,13.729,24.4,0a24.949,24.949,0,0,0-11.435-17.472l-.111-.07q-.325-.2-.656-.394-.332.192-.656.394Z" transform="translate(-203.966 -73.6)"/><g transform="translate(0.271 0)"><g class="v"><circle class="w" cx="7.331" cy="7.331" r="7.331" transform="translate(4.871 15.542)"/><circle class="x" cx="6.318" cy="6.318" r="6.318" transform="translate(5.884 17.568)"/><path class="y" d="M248.914,137.75c.489-.847,2.086-.84,3.567.015s2.285,2.234,1.8,3.081-2.086.84-3.567-.015S248.425,138.6,248.914,137.75Z" transform="translate(-236.896 -120.182)"/></g></g><path class="z" d="M223.9,176.638a25.087,25.087,0,0,0,6.958,5.968,24.945,24.945,0,0,0,12.363-19.274C241.083,167.821,235.85,174.983,223.9,176.638Z" transform="translate(-218.389 -139.406)"/><path class="aa" d="M204.239,168.367a24.959,24.959,0,0,0,12.2,17.932,25.084,25.084,0,0,0,9.081-9.043C211.612,180.023,204.262,168.4,204.239,168.367Z" transform="translate(-203.968 -143.098)"/></g></g></g></svg>