<svg xmlns="http://www.w3.org/2000/svg" width="40" height="40" viewBox="0 0 40 40"><defs><style>.a{fill:#d2d2d2;}</style></defs><path class="a" d="M20,8A20,20,0,1,0,40,28,20,20,0,0,0,20,8Zm6.452,13.548a2.581,2.581,0,1,1-2.581,2.581A2.578,2.578,0,0,1,26.452,21.548Zm-12.9,0a2.581,2.581,0,1,1-2.581,2.581A2.578,2.578,0,0,1,13.548,21.548Zm15.71,13.726a12.047,12.047,0,0,1-18.516,0,1.291,1.291,0,0,1,1.984-1.653,9.476,9.476,0,0,0,14.548,0A1.291,1.291,0,0,1,29.258,35.274Z" transform="translate(0 -8)"/></svg>