<svg xmlns="http://www.w3.org/2000/svg" width="32" height="32" viewBox="0 0 32 32"><defs><style>.a{fill:#f8c852;}</style></defs><path class="a" d="M16,8A16,16,0,1,0,32,24,16,16,0,0,0,16,8Zm5.161,10.839A2.065,2.065,0,1,1,19.1,20.9,2.062,2.062,0,0,1,21.161,18.839Zm-10.323,0A2.065,2.065,0,1,1,8.774,20.9,2.062,2.062,0,0,1,10.839,18.839ZM23.406,29.819a9.638,9.638,0,0,1-14.813,0A1.033,1.033,0,0,1,10.181,28.5a7.581,7.581,0,0,0,11.639,0A1.033,1.033,0,0,1,23.406,29.819Z" transform="translate(0 -8)"/></svg>