<svg xmlns="http://www.w3.org/2000/svg" width="40" height="40" viewBox="0 0 40 40"><defs><style>.a{fill:#f8c852;}</style></defs><path class="a" d="M20,8A20,20,0,1,0,40,28,20,20,0,0,0,20,8ZM9.032,25.371c.266-3.4,2.6-5.758,4.516-5.758s4.25,2.363,4.516,5.758a.642.642,0,0,1-1.2.363L16.1,24.363a3.017,3.017,0,0,0-2.54-1.742,3.017,3.017,0,0,0-2.54,1.742l-.766,1.371A.652.652,0,0,1,9.032,25.371Zm20.226,9.9a12.047,12.047,0,0,1-18.516,0,1.291,1.291,0,0,1,1.984-1.653,9.476,9.476,0,0,0,14.548,0A1.291,1.291,0,0,1,29.258,35.274Zm.5-9.54-.766-1.371a3.017,3.017,0,0,0-2.54-1.742,3.017,3.017,0,0,0-2.54,1.742l-.766,1.371a.644.644,0,0,1-1.2-.363c.266-3.4,2.6-5.758,4.516-5.758s4.25,2.363,4.516,5.758A.652.652,0,0,1,29.758,25.734Z" transform="translate(0 -8)"/></svg>