<svg xmlns="http://www.w3.org/2000/svg" xmlns:xlink="http://www.w3.org/1999/xlink" width="16" height="16" viewBox="0 0 16 16"><defs><style>.a,.c{fill:#a20a0a;}.a{stroke:#707070;}.b{clip-path:url(#a);}</style><clipPath id="a"><rect class="a" width="16" height="16" transform="translate(27 321)"/></clipPath></defs><g class="b" transform="translate(-27 -321)"><path class="c" d="M9.319,4.894A3.882,3.882,0,0,0,4.625,5.919L6.35,7.644a.5.5,0,1,1-.706.706L4.075,6.782l-4,8.21a.709.709,0,0,0,0,.616.7.7,0,0,0,.938.322l4.175-2.038L3.647,12.354a.5.5,0,0,1,0-.706.5.5,0,0,1,.706,0l1.781,1.781,3.188-1.556a3.883,3.883,0,0,0,0-6.979ZM12.2,3.8A3.106,3.106,0,0,0,11.251,0,3.1,3.1,0,0,0,11,4.747l.25.25A3.1,3.1,0,0,0,16,4.75,3.106,3.106,0,0,0,12.2,3.8Z" transform="translate(26.999 321)"/></g></svg>