<svg xmlns="http://www.w3.org/2000/svg" xmlns:xlink="http://www.w3.org/1999/xlink" width="16" height="16" viewBox="0 0 16 16"><defs><style>.a,.c{fill:#a20a0a;}.a{stroke:#707070;}.b{clip-path:url(#a);}</style><clipPath id="a"><rect class="a" width="16" height="16" transform="translate(26 353)"/></clipPath></defs><g class="b" transform="translate(-26 -353)"><path class="c" d="M3.5,4A2.493,2.493,0,0,1,4.75,1.847V8h1.5V1.5h1.5V8h1.5V1.847A2.493,2.493,0,0,1,10.5,4V8H12V4A4,4,0,0,0,8,0H6A4,4,0,0,0,2,4V8H3.5Zm10.447,6.684-.334-1A1,1,0,0,0,12.662,9H1.334a1,1,0,0,0-.95.684l-.334,1A1,1,0,0,0,1,12v3.5a.5.5,0,0,0,.5.5h1a.5.5,0,0,0,.5-.5V12h8v3.5a.5.5,0,0,0,.5.5h1a.5.5,0,0,0,.5-.5V12A1,1,0,0,0,13.947,10.684Z" transform="translate(27.001 353)"/></g></svg>