<svg xmlns="http://www.w3.org/2000/svg" width="15.142" height="15.142" viewBox="0 0 15.142 15.142"><defs><style>.a{fill:#fff;}</style></defs><path class="a" d="M30.355,26.938a.726.726,0,0,1,0,1.028l-2.4,2.389a.726.726,0,0,1-1.028,0L23,26.387l-3.937,3.968a.726.726,0,0,1-1.028,0l-2.389-2.4a.726.726,0,0,1,0-1.028L19.613,23l-3.968-3.937a.726.726,0,0,1,0-1.028l2.4-2.4a.726.726,0,0,1,1.028,0L23,19.613l3.938-3.968a.726.726,0,0,1,1.028,0l2.4,2.4a.726.726,0,0,1,0,1.028L26.387,23Z" transform="translate(-15.432 -15.426)"/></svg>