<svg xmlns="http://www.w3.org/2000/svg" width="14" height="14" viewBox="0 0 14 14"><path d="M8.314,11.1a.328.328,0,0,1,0,.464L7.092,12.784A4.156,4.156,0,0,1,1.215,6.906L2.436,5.684a.328.328,0,0,1,.464,0L3.983,6.767a.328.328,0,0,1,0,.464L2.761,8.453a1.969,1.969,0,0,0,2.784,2.784l1.222-1.222a.328.328,0,0,1,.464,0ZM6.767,3.983a.328.328,0,0,0,.464,0L8.453,2.761a1.969,1.969,0,0,1,2.784,2.784L10.016,6.767a.328.328,0,0,0,0,.464L11.1,8.314a.328.328,0,0,0,.464,0l1.222-1.222A4.156,4.156,0,0,0,6.906,1.215L5.685,2.436a.328.328,0,0,0,0,.464L6.767,3.983Zm6.421,9.824.619-.619a.656.656,0,0,0,0-.928L1.738.191a.656.656,0,0,0-.928,0L.191.81a.656.656,0,0,0,0,.928L12.26,13.807a.656.656,0,0,0,.928,0Z" transform="translate(0.001 0.001)"/></svg>