<svg xmlns="http://www.w3.org/2000/svg" xmlns:xlink="http://www.w3.org/1999/xlink" width="168" height="116" viewBox="0 0 168 116"><defs><style>.a{opacity:0.4;}.b{fill:#716a89;opacity:0.3;}.c{fill:#e6e6e6;}.d{fill:#1d1d1d;}.e{fill:#2d2d2d;}.f{fill:url(#a);}.g{fill:#2f3743;}.g,.h{fill-rule:evenodd;}.h{fill:#152231;}.i{fill:#c4bfd1;}.j{fill:#242424;}.k,.o{fill:#534da9;}.l{fill:#9797d8;}.m{fill:#77988f;}.n{fill:#8282c1;}.o{opacity:0.45;}</style><linearGradient id="a" x1="-0.02" y1="0.5" x2="1.009" y2="0.5" gradientUnits="objectBoundingBox"><stop offset="0" stop-color="#bf643c"/><stop offset="0.129" stop-color="#ae5b39"/><stop offset="0.432" stop-color="#8c4a33"/><stop offset="0.682" stop-color="#773f30"/><stop offset="0.848" stop-color="#703c2f"/><stop offset="0.894" stop-color="#734033"/><stop offset="0.946" stop-color="#7c4d41"/><stop offset="0.997" stop-color="#8a6156"/></linearGradient></defs><g transform="translate(0 0)"><g class="a" transform="translate(0 0)"><g transform="translate(3.351 42.099)"><path class="b" d="M693.157,626.8c-3.01-.178-1.531-1.841-6.094-1.8-48.8.435-148.022.153-148.022.153l-.128.931,4.631.213-.573,3.745-10.459-.022-.212,1.126,78.524.243a2.081,2.081,0,0,0,.445-.756c1.025,1.222-1.888,3.313-1.41,3.313h3.972c.874,0,3.031-2.012,4.8-1.986,3.567.054,8.644-.186,12.436-.186,10.1,0,50.13.87,51.155.834,8.915-.306,8.574-1.222,11.687-2.251Z" transform="translate(-532.3 -560.571)"/><g transform="translate(27.038)"><path class="c" d="M645.608,514.191c0,.343-8.4,3.963-8.4,3.963l-28.278-1.108L591.8,514.762l-1.157-2.017a15.932,15.932,0,0,1,1.61-.15c5.776-.279,25.849-1.178,29.363-1.375,4.114-.229,15.882-.734,15.882-.734Z" transform="translate(-583.862 -510.487)"/><rect width="6.958" height="52.147" transform="translate(49.871 7.526)"/><path class="d" d="M670.788,587.576l-4.176,2.045V555.454a1.832,1.832,0,0,0,1.187.968,3.429,3.429,0,0,0,1.687.137Z" transform="translate(-616.741 -529.948)"/><path d="M666.714,614.47l6.957-2.045,20.673,8.351-1.7,4.26Z" transform="translate(-616.785 -554.605)"/><path d="M666.622,612.085h6.817L672.3,628.359h-3.989L667,616.8Z" transform="translate(-616.745 -554.458)"/><path class="e" d="M651.295,612.6l-.175-.894-20.951,8.564.473,1.184Z" transform="translate(-600.968 -554.296)"/><path d="M658.139,614.47l-6.96-2.045-20.671,8.351,1.7,4.26Z" transform="translate(-601.116 -554.605)"/><path class="e" d="M667.36,613.286l-.071,4.037,1.314,11.556.1-3.962Z" transform="translate(-617.034 -554.978)"/><path class="d" d="M666.972,612.085h6.819L672.7,624.4h-4.141l-1.419-11.6Z" transform="translate(-616.897 -554.458)"/><path d="M677.688,612.085l.161,4.718-1.314,11.556-.094-3.961Z" transform="translate(-620.994 -554.458)"/><path class="e" d="M668.916,587.576h-2.3V555.454l.63,1.778Z" transform="translate(-616.741 -529.949)"/><path d="M673.975,611.385l2.666,3.749,1.135-.7.511-1.6-1.666-1.449-.775-.917Z" transform="translate(-619.927 -553.758)"/><path d="M676.482,545.253c0,1.6-7.055,2.9-15.76,2.9s-15.76-1.3-15.76-2.9V540.6a99.43,99.43,0,0,0,15.76,1.743c7.789,0,8.734-3.347,15.76-1.743Z" transform="translate(-607.371 -523.333)"/><path class="f" d="M684.849,533.688c0,2.117-22.864,4.857-51.07,4.857s-51.07-2.739-51.07-4.857v-5.111s28.785,2.3,51.07,2.3c25.238,0,28.3-4.418,51.07-2.3Z" transform="translate(-580.428 -518.068)"/><ellipse class="c" cx="51.07" cy="3.834" rx="51.07" ry="3.834" transform="translate(2.281 6.675)"/><path class="c" d="M673.032,510.487c28.075.011,50.344,1.769,50.785,3.834.7,3.255-22.864,3.833-51.07,3.833Z" transform="translate(-619.396 -510.487)"/><path class="g" d="M763.459,534.819a.728.728,0,0,0,.074.059,2.053,2.053,0,0,1,.635.589A1.825,1.825,0,0,1,763.459,534.819Zm.239,2.614a3.522,3.522,0,0,1,.613-1.083,2.449,2.449,0,0,1-.47.881C763.792,537.3,763.776,537.389,763.7,537.433Z" transform="translate(-658.656 -521.018)"/><path class="h" d="M724.759,547.912c-.06.166-.12.333-.181.5a8.9,8.9,0,0,1-1.288-3.631c.581.919,1.4,1.64,1.978,2.544C725.662,547.94,724.763,547.565,724.759,547.912Z" transform="translate(-641.271 -525.33)"/><path class="c" d="M590.642,512.745c8.007-1.332,25.847-2.258,46.571-2.258h.285Z" transform="translate(-583.862 -510.487)"/><path class="i" d="M685.392,532.217c0,7.059-106.7,6.545-106.7.769,0-.444,2.281-15.739,2.281-15.739s28.785,3.833,51.07,3.833c20.806,0,33.688-3.107,47.654-2.507,3.008.129,3.513-.857,3.416-1.326C683.109,517.247,685.392,531.714,685.392,532.217Z" transform="translate(-578.688 -513.413)"/><path class="c" d="M633.779,519.877c-28.205,0-51.07-1.716-51.07-3.833,0-.563,1.609-1.095,4.5-1.576l8.527,2.906Z" transform="translate(-580.428 -512.21)"/><path class="i" d="M592.527,526.259c-.822.052-1.824.183-3.153.375-.786.1-1.509.21-2.166.319h0c-2.89.482-4.5,1.015-4.5,1.577,0,.351.634.692,1.816,1.017a3.565,3.565,0,0,1,.427.109l.232.056a98.131,98.131,0,0,0,10.253.284l.583,0c9.357-.066,6.251-1.047,3.9-.417h0c-.177.073-.366.225-.533.209-.812-.088-1.62-.218-2.428-.335a6.216,6.216,0,0,0-1.341-.391c-.562-.028-.815-.515-1.012-.993,0,0-.507-.493-.7-.657S592.527,526.259,592.527,526.259Z" transform="translate(-580.428 -517.313)"/><path class="c" d="M712.046,520.666c-9.368.847-23.5,1.385-39.3,1.385l.09-2.421s22.492-.209,36.3-.116C709.675,519.517,715.082,520.392,712.046,520.666Z" transform="translate(-619.396 -514.383)"/><path class="c" d="M180.957,114.79c-3.238.868-11.541,1.4-12.738,1.494s-3.674-2.377-3.674-2.377h13.175Z" transform="translate(-77.612 -109.822)"/><path d="M685.1,537.426h-.234c-.011.042-.327,1.043-6.615,2.079-12.282,2.027-37.611,2.619-57.268,2.305-11.043-.177-21.149-.635-28.459-1.289-11.713-1.049-12.823-2.288-12.912-2.426a.224.224,0,0,1,.025.108h-.258c-.072.5-.139.973-.2,1.394a14.163,14.163,0,0,0,4.077,1.23,114.186,114.186,0,0,0,11.959,1.4c9.542.727,22.75,1.144,36.236,1.144,14.3,0,27.525-.449,37.24-1.265,10.6-.89,14.945-2,16.641-3.122C685.269,538.519,685.191,537.993,685.1,537.426Z" transform="translate(-578.903 -522.146)"/></g></g><g transform="translate(0 23.547)"><g transform="translate(0 2.487)"><g transform="translate(7.36)"><path class="j" d="M543.215,563.355l-3.064-.638c.045-.216,4.539-21.741,4.539-36.635a144.86,144.86,0,0,0-6.531-41.889,10.906,10.906,0,0,1-.654-2.595h3.13a.827.827,0,0,0-.01-.152c.035.2.288,1.041.532,1.851a147.886,147.886,0,0,1,6.664,42.785C547.821,541.3,543.4,562.462,543.215,563.355Z" transform="translate(-537.505 -481.446)"/></g><path class="e" d="M591.915,553.967h-37.2l-.776,6.841h37.977Z" transform="translate(-537.257 -513.04)"/><rect class="j" width="39.562" height="3.26" transform="translate(15.475 55.29)"/><g transform="translate(51.128 41.458)"><rect class="j" width="3.706" height="40.202" transform="translate(0 0.448) rotate(-6.949)"/></g><g transform="translate(0 0.24)"><path class="e" d="M530.817,568.717l-3.11-.648c.046-.215,4.538-21.746,4.538-36.641,0-20.242-5.286-38.364-7.022-44.319a12.492,12.492,0,0,1-.694-2.8l1.993-1.889c-.156-1.228,1.039.006,1.028-.06.037.219.446,2.917.725,3.872,1.768,6.062,7.147,24.509,7.147,45.2C535.421,546.654,531,567.824,530.817,568.717Z" transform="translate(-524.529 -481.87)"/></g><rect class="e" width="37.15" height="7.047" transform="translate(9.876 45.869)"/><rect class="e" width="39.563" height="3.26" transform="translate(8.669 60.439)"/><g transform="translate(44.328 46.001)"><rect class="e" width="3.707" height="40.829" transform="translate(0 0.441) rotate(-6.833)"/></g><path d="M607.606,559.119l7.536-5.141.665,6.52-7.435,4.829Z" transform="translate(-560.484 -513.058)"/><path d="M542.938,561.309c-.454-.28-.353-1.069-.132-2.453s6.092-4.548,7.464-4.812a106.9,106.9,0,0,1,17.344-1.516c9.435-.132,18.938,1.121,19.4,1.78a2.876,2.876,0,0,1,.355,2.44c-.292.571-5.976,4.193-7.367,4.679S543.39,561.589,542.938,561.309Z" transform="translate(-532.358 -512.415)"/><path class="k" d="M542.938,559.6c-.454-.279-.353-1.069-.132-2.454s6.092-4.548,7.464-4.812a106.945,106.945,0,0,1,17.344-1.516c9.435-.132,18.938,1.12,19.4,1.78a2.875,2.875,0,0,1,.355,2.439c-.292.572-5.976,4.194-7.367,4.68S543.39,559.883,542.938,559.6Z" transform="translate(-532.358 -511.672)"/></g><path class="l" d="M543.223,557.028c-1.386.211,4.028-4.178,6.793-4.676a104.569,104.569,0,0,1,17.455-1.613c9.436-.131,18.885,1.034,19.35,1.693.088.126-1.5.615-3.023,1.512-2.359,1.391-3.7,3.082-5,2.963C555.618,554.77,547.214,556.423,543.223,557.028Z" transform="translate(-532.523 -509.148)"/><path class="m" d="M526.709,483.139a2.388,2.388,0,0,1,1.713-2.935l7.459-1.907a2.464,2.464,0,0,1,2.974,1.735l2.861,10.594a2.46,2.46,0,0,1-1.7,2.942l-7.314,2.513a2.106,2.106,0,0,1-2.876-1.371Z" transform="translate(-525.437 -477.563)"/><path d="M524.974,482.742a2.453,2.453,0,0,1,1.758-3.012l7.655-1.958a2.53,2.53,0,0,1,3.052,1.781l2.935,10.871a2.7,2.7,0,0,1-1.7,3.2l-7.543,2.446a2.19,2.19,0,0,1-2.957-1.458Z" transform="translate(-524.685 -477.336)"/><path class="n" d="M526.175,482.926a2.389,2.389,0,0,1,1.714-2.935l7.46-1.908a2.465,2.465,0,0,1,2.973,1.736l2.86,10.594a2.631,2.631,0,0,1-1.656,3.121l-7.315,2.513a2.237,2.237,0,0,1-2.917-1.55Z" transform="translate(-525.205 -477.471)"/><path class="l" d="M537.354,479.31c.328-.057,2-1.285,2.252-1.33-1.613-2.66-11.971,1.305-11.971,1.305a2.425,2.425,0,0,0-1.532,2.806c.728-.369,2.274-.912,2.846.061.6,1.028,3.023-1.875,3.689-1.935S534.633,479.795,537.354,479.31Z" transform="translate(-525.202 -477.062)"/><path class="k" d="M530.918,481.948a2.355,2.355,0,0,1,1.746-2.861l6.919-1.745a2.429,2.429,0,0,1,2.9,1.768l2.615,10.5a2.6,2.6,0,0,1-1.695,3.046L536.615,495a2.2,2.2,0,0,1-2.846-1.584Z" transform="translate(-527.264 -477.155)"/><path class="k" d="M543.357,503.017a2.685,2.685,0,0,0,.317-.663l-.428.078-1.21.685-2.136,1.048s-.886,0-1.169-.04-4.193-.727-4.232.726c-.036,1.275-1.749.964-2.576.459a2.223,2.223,0,0,0,2.812,1.275l5.009-1.721Z" transform="translate(-527.729 -488.076)"/><path class="o" d="M594.98,570.25h3.645l2.851,23.4,3.68-.449-4.568-37.481a2.615,2.615,0,0,0,0-1,3.1,3.1,0,0,0-.449-2.156,1.229,1.229,0,0,0-.547-.26c-1.442-.672-10.309-1.691-19.164-1.567-.707.01-1.391.028-2.064.049-5.878,2.323-9.6,5.59,3.1,7.866,18.433,3.3,10.26,1.913,10.26,1.913l4.786,38.033,1.835-.259Zm-.819-6.84,3.363-2.185.7,5.765H594.59Z" transform="translate(-545.485 -509.352)"/></g><g transform="translate(108.329 23.547)"><g transform="translate(0)"><g transform="translate(0 2.487)"><g transform="translate(41.995)"><path class="j" d="M542.111,563.355l3.064-.638c-.045-.216-4.539-21.741-4.539-36.635a144.86,144.86,0,0,1,6.531-41.889,10.906,10.906,0,0,0,.654-2.595h-3.13a.827.827,0,0,1,.01-.152c-.035.2-.288,1.041-.532,1.851a147.885,147.885,0,0,0-6.664,42.785C537.505,541.3,541.923,562.462,542.111,563.355Z" transform="translate(-537.505 -481.446)"/></g><path class="e" d="M553.939,553.967h37.2l.776,6.841H553.939Z" transform="translate(-548.926 -513.04)"/><rect class="j" width="39.562" height="3.26" transform="translate(4.634 55.29)"/><g transform="translate(0 41.458)"><rect class="j" width="3.706" height="40.202" transform="translate(3.679 40.355) rotate(-173.051)"/></g><g transform="translate(48.779 0.24)"><path class="e" d="M529.133,568.717l3.11-.648c-.046-.215-4.538-21.746-4.538-36.641,0-20.242,5.286-38.364,7.022-44.319a12.492,12.492,0,0,0,.694-2.8l-1.993-1.889c.156-1.228-1.039.006-1.028-.06-.037.219-.446,2.917-.725,3.872-1.768,6.062-7.147,24.509-7.147,45.2C524.529,546.654,528.946,567.824,529.133,568.717Z" transform="translate(-524.529 -481.87)"/></g><rect class="e" width="37.15" height="7.047" transform="translate(12.645 45.869)"/><rect class="e" width="39.563" height="3.26" transform="translate(11.439 60.439)"/><g transform="translate(6.805 46.001)"><rect class="e" width="3.706" height="40.829" transform="translate(3.68 40.98) rotate(-173.167)"/></g><path d="M615.808,559.119l-7.536-5.141-.665,6.52,7.435,4.829Z" transform="translate(-603.259 -513.058)"/><path d="M587.193,561.309c.454-.28.353-1.069.132-2.453s-6.092-4.548-7.464-4.812a106.9,106.9,0,0,0-17.344-1.516c-9.435-.132-18.938,1.121-19.4,1.78a2.876,2.876,0,0,0-.355,2.44c.292.571,5.976,4.193,7.367,4.679S586.741,561.589,587.193,561.309Z" transform="translate(-538.102 -512.415)"/><path class="k" d="M587.193,559.6c.454-.279.353-1.069.132-2.454s-6.092-4.548-7.464-4.812a106.945,106.945,0,0,0-17.344-1.516c-9.435-.132-18.938,1.12-19.4,1.78a2.875,2.875,0,0,0-.355,2.439c.292.572,5.976,4.194,7.367,4.68S586.741,559.883,587.193,559.6Z" transform="translate(-538.102 -511.672)"/></g><path class="l" d="M586.6,557.028c1.386.211-4.028-4.178-6.793-4.676a104.569,104.569,0,0,0-17.455-1.613c-9.436-.131-18.885,1.034-19.35,1.693-.088.126,1.5.615,3.023,1.512,2.359,1.391,3.7,3.082,5,2.963C574.205,554.77,582.61,556.423,586.6,557.028Z" transform="translate(-537.63 -509.148)"/><path class="m" d="M541.715,483.139A2.388,2.388,0,0,0,540,480.2l-7.459-1.907a2.464,2.464,0,0,0-2.974,1.735l-2.861,10.594a2.46,2.46,0,0,0,1.7,2.942l7.314,2.513a2.106,2.106,0,0,0,2.876-1.371Z" transform="translate(-483.316 -477.563)"/><path d="M540.377,482.742a2.453,2.453,0,0,0-1.758-3.012l-7.655-1.958a2.53,2.53,0,0,0-3.052,1.781l-2.935,10.871a2.7,2.7,0,0,0,1.7,3.2l7.543,2.446a2.19,2.19,0,0,0,2.957-1.458Z" transform="translate(-480.995 -477.336)"/><path class="n" d="M541.184,482.926a2.389,2.389,0,0,0-1.714-2.935l-7.46-1.908a2.465,2.465,0,0,0-2.973,1.736l-2.86,10.594a2.631,2.631,0,0,0,1.656,3.121l7.315,2.513a2.237,2.237,0,0,0,2.917-1.55Z" transform="translate(-482.483 -477.471)"/><path class="l" d="M528.337,479.31c-.328-.057-2-1.285-2.252-1.33,1.613-2.66,11.971,1.305,11.971,1.305a2.425,2.425,0,0,1,1.532,2.806c-.728-.369-2.274-.912-2.846.061-.6,1.028-3.023-1.875-3.689-1.935S531.058,479.795,528.337,479.31Z" transform="translate(-480.817 -477.062)"/><path class="k" d="M545.1,481.948a2.355,2.355,0,0,0-1.746-2.861l-6.919-1.745a2.429,2.429,0,0,0-2.9,1.768l-2.615,10.5a2.6,2.6,0,0,0,1.695,3.046L539.4,495a2.2,2.2,0,0,0,2.846-1.584Z" transform="translate(-489.082 -477.155)"/><path class="k" d="M532.24,503.017a2.685,2.685,0,0,1-.317-.663l.428.078,1.21.685,2.136,1.048s.886,0,1.169-.04,4.193-.727,4.232.726c.036,1.275,1.749.964,2.576.459a2.223,2.223,0,0,1-2.812,1.275l-5.009-1.721Z" transform="translate(-488.197 -488.076)"/></g><path class="o" d="M583.125,570.25H579.48l-2.851,23.4-3.68-.449,4.568-37.481a2.615,2.615,0,0,1,0-1,3.1,3.1,0,0,1,.449-2.156,1.229,1.229,0,0,1,.547-.26c1.442-.672,10.309-1.691,19.164-1.567.707.01,1.391.028,2.064.049,5.878,2.323,9.6,5.59-3.1,7.866-18.433,3.3-10.26,1.913-10.26,1.913L581.594,598.6l-1.835-.259Zm.819-6.84-3.363-2.185-.7,5.765h3.637Z" transform="translate(-572.949 -509.352)"/></g><path d="M16.629,22.2a.656.656,0,0,1,0,.928l-2.443,2.443A8.312,8.312,0,0,1,2.43,13.813L4.873,11.37a.656.656,0,0,1,.928,0l2.166,2.166a.656.656,0,0,1,0,.928L5.524,16.906a3.937,3.937,0,0,0,5.568,5.568l2.443-2.443a.656.656,0,0,1,.928,0ZM13.535,7.967a.656.656,0,0,0,.928,0l2.443-2.443a3.937,3.937,0,0,1,5.568,5.568l-2.443,2.443a.656.656,0,0,0,0,.928L22.2,16.629a.656.656,0,0,0,.928,0l2.443-2.443A8.312,8.312,0,1,0,13.813,2.43L11.37,4.873a.656.656,0,0,0,0,.928l2.165,2.166ZM26.377,27.615l1.237-1.237a1.312,1.312,0,0,0,0-1.856L3.477.384a1.312,1.312,0,0,0-1.856,0L.384,1.621a1.312,1.312,0,0,0,0,1.856L24.521,27.615a1.313,1.313,0,0,0,1.856,0Z" transform="translate(70.001 0.001)"/></g></g></svg>