<svg xmlns="http://www.w3.org/2000/svg" width="60" height="60" viewBox="0 0 60 60"><defs><style>.a{fill:#858585;}</style></defs><path class="a" d="M34.688,45.073H25.313A2.806,2.806,0,0,1,22.5,42.26V22.57H12.223a2.34,2.34,0,0,1-1.652-4L28.395.734a2.27,2.27,0,0,1,3.2,0L49.43,18.573a2.34,2.34,0,0,1-1.652,4H37.5V42.26A2.806,2.806,0,0,1,34.688,45.073ZM60,44.135V57.262a2.806,2.806,0,0,1-2.812,2.813H2.813A2.806,2.806,0,0,1,0,57.262V44.135a2.806,2.806,0,0,1,2.813-2.813H18.75v.938a6.567,6.567,0,0,0,6.563,6.563h9.375A6.567,6.567,0,0,0,41.25,42.26v-.938H57.188A2.806,2.806,0,0,1,60,44.135ZM45.469,54.449a2.344,2.344,0,1,0-2.344,2.344A2.351,2.351,0,0,0,45.469,54.449Zm7.5,0a2.344,2.344,0,1,0-2.344,2.344A2.351,2.351,0,0,0,52.969,54.449Z" transform="translate(0 -0.075)"/></svg>