<svg xmlns="http://www.w3.org/2000/svg" xmlns:xlink="http://www.w3.org/1999/xlink" width="14" height="14" viewBox="0 0 14 14"><defs><style>.a{fill:#fff;}.b{clip-path:url(#a);}</style><clipPath id="a"><rect class="a" width="14" height="14" transform="translate(955 19.5)"/></clipPath></defs><g class="b" transform="translate(-955 -19.5)"><path d="M13.916,68.312A7.8,7.8,0,0,0,7,64,7.8,7.8,0,0,0,.085,68.312a.786.786,0,0,0,0,.709A7.8,7.8,0,0,0,7,73.333a7.8,7.8,0,0,0,6.915-4.312A.786.786,0,0,0,13.916,68.312ZM7,72.167a3.5,3.5,0,1,1,3.5-3.5A3.5,3.5,0,0,1,7,72.167Zm0-5.833a2.317,2.317,0,0,0-.615.092,1.163,1.163,0,0,1-1.626,1.626A2.328,2.328,0,1,0,7,66.333Z" transform="translate(955 -41.875)"/></g></svg>